<mxfile host="app.diagrams.net" modified="2023-08-20T08:36:15.126Z" agent="Mozilla/5.0 (Macintosh; Intel Mac OS X 10_15_7) AppleWebKit/537.36 (KHTML, like Gecko) Chrome/115.0.0.0 Safari/537.36" etag="zupN0JvePgjOsvFKzsRT" version="21.6.8" type="github">
  <diagram name="Page-1" id="08gq_sWbB6u343W8Tb20">
    <mxGraphModel dx="954" dy="610" grid="1" gridSize="10" guides="1" tooltips="1" connect="1" arrows="1" fold="1" page="1" pageScale="1" pageWidth="850" pageHeight="1100" math="0" shadow="0">
      <root>
        <mxCell id="0" />
        <mxCell id="1" parent="0" />
        <mxCell id="wsS-I9GUPOSPmS1y-fyr-1" value="ICOS" style="whiteSpace=wrap;html=1;aspect=fixed;" vertex="1" parent="1">
          <mxGeometry x="400" y="240" width="80" height="80" as="geometry" />
        </mxCell>
        <mxCell id="wsS-I9GUPOSPmS1y-fyr-3" value="REST APIs" style="shape=callout;whiteSpace=wrap;html=1;perimeter=calloutPerimeter;" vertex="1" parent="1">
          <mxGeometry x="420" y="160" width="120" height="80" as="geometry" />
        </mxCell>
        <mxCell id="wsS-I9GUPOSPmS1y-fyr-4" value="Developed in CSharp" style="shape=callout;whiteSpace=wrap;html=1;perimeter=calloutPerimeter;direction=south;position2=0.33;" vertex="1" parent="1">
          <mxGeometry x="480" y="300" width="120" height="60" as="geometry" />
        </mxCell>
      </root>
    </mxGraphModel>
  </diagram>
</mxfile>
